<svg id="boite-en-carton-ouverte" xmlns="http://www.w3.org/2000/svg" width="181.295" height="153.633" viewBox="0 0 181.295 153.633">
  <path id="Tracé_20863" data-name="Tracé 20863" d="M181.254,65.766a2.7,2.7,0,0,0-1.553-2L113.135,33.807a2.7,2.7,0,0,0-2.9.441L90.648,51.584,71.061,34.247a2.7,2.7,0,0,0-2.9-.441L1.594,63.767a2.7,2.7,0,0,0-.773,4.405l21.027,20.4L9.993,109.5a2.7,2.7,0,0,0,1.012,3.68l11.522,6.576v26.894a2.7,2.7,0,0,0,1.349,2.34l65.418,37.845a2.691,2.691,0,0,0,2.65.029l0,.006,65.478-37.88a2.7,2.7,0,0,0,1.349-2.34V119.759l11.523-6.576a2.7,2.7,0,0,0,1.012-3.68L159.448,88.57l21.027-20.4A2.7,2.7,0,0,0,181.254,65.766ZM114.8,107.734,93.351,95.311V59.579l56.914,28.613ZM31.031,88.193,87.946,59.579V95.311L66.5,107.734ZM7.443,67.064l61.343-27.61,17.08,15.118L25.733,84.8Zm8.582,42.76L26.266,91.741l60.326,33.237L73.208,142.459Zm71.92,69.987L27.933,145.094V122.845l44.645,25.48a2.7,2.7,0,0,0,3.487-.7L87.945,132.1v47.708Zm2.7-58.771L72.025,110.78,90.648,99.993,109.27,110.78Zm62.714,24.054L93.351,179.811V132.1l11.88,15.517a2.7,2.7,0,0,0,3.487.7l44.644-25.48Zm11.909-35.27-57.183,32.635L94.7,124.977,155.03,91.74ZM155.563,84.8,95.429,54.572l17.08-15.118,61.344,27.61Z" transform="translate(0 -33.568)" fill="#fff"/>
</svg>
