<svg id="boite-en-carton-fermee-avec-ruban-demballage" xmlns="http://www.w3.org/2000/svg" width="154.524" height="158.945" viewBox="0 0 154.524 158.945">
  <path id="Tracé_20864" data-name="Tracé 20864" d="M158.306,33.17,84.081.263a3.054,3.054,0,0,0-2.48,0L7.377,33.17a3.154,3.154,0,0,0-1.8,3.166V122.02a2.968,2.968,0,0,0,1.735,2.7l74.292,33.956a2.969,2.969,0,0,0,1.234.269,2.388,2.388,0,0,0,1.231-.275s74.3-33.951,74.3-33.951a2.97,2.97,0,0,0,1.735-2.7V36.336A3.22,3.22,0,0,0,158.306,33.17ZM50.577,53.539A2.968,2.968,0,0,0,48.9,56.213V85.179L34.388,78.333V49.669l69.981-33.718,12.613,5.592ZM82.842,6.407l14.4,6.385-64.335,31L15.978,36.052ZM79.873,151.355,11.518,120.112V40.542L28.45,48.281V80.215a2.967,2.967,0,0,0,1.7,2.685L50.6,92.549a2.968,2.968,0,0,0,4.235-2.685V60.34L79.873,71.784Zm2.968-84.742L59.379,55.889,124.106,24.7l25.6,11.35Zm71.324,53.5L85.811,151.356V71.784l68.354-31.243Z" transform="translate(-5.58 0)" fill="#fff"/>
</svg>
