<svg id="Composant_19_5" data-name="Composant 19 – 5" xmlns="http://www.w3.org/2000/svg" xmlns:xlink="http://www.w3.org/1999/xlink" width="192.275" height="118.415" viewBox="0 0 192.275 118.415">
  <defs>
    <clipPath id="clip-path">
      <rect id="Rectangle_847" data-name="Rectangle 847" width="192.275" height="118.415" fill="#fff"/>
    </clipPath>
  </defs>
  <g id="Groupe_2781" data-name="Groupe 2781" clip-path="url(#clip-path)">
    <path id="Tracé_20911" data-name="Tracé 20911" d="M175.877,119.121H18.106a2.367,2.367,0,0,1-2.367-2.367A12.386,12.386,0,0,0,3.367,104.382,2.367,2.367,0,0,1,1,102.016V92.351a2.367,2.367,0,0,1,2.367-2.367,2.282,2.282,0,1,0,0-4.564A2.367,2.367,0,0,1,1,83.054v-9.13a2.367,2.367,0,0,1,2.367-2.367,2.283,2.283,0,0,0,0-4.565A2.367,2.367,0,0,1,1,64.625V55.5a2.367,2.367,0,0,1,2.367-2.367,2.282,2.282,0,1,0,0-4.564A2.367,2.367,0,0,1,1,46.2v-9.13A2.367,2.367,0,0,1,3.367,34.7a2.282,2.282,0,1,0,0-4.564A2.367,2.367,0,0,1,1,27.77V18.106a2.367,2.367,0,0,1,2.367-2.367A12.386,12.386,0,0,0,15.739,3.367,2.367,2.367,0,0,1,18.106,1H175.877a2.367,2.367,0,0,1,2.367,2.367,12.386,12.386,0,0,0,12.372,12.372,2.367,2.367,0,0,1,2.367,2.367V27.77a2.367,2.367,0,0,1-2.367,2.367,2.282,2.282,0,1,0,0,4.564,2.367,2.367,0,0,1,2.367,2.367V46.2a2.367,2.367,0,0,1-2.366,2.367,2.283,2.283,0,1,0,0,4.565,2.367,2.367,0,0,1,2.367,2.367v9.129a2.367,2.367,0,0,1-2.367,2.367,2.283,2.283,0,0,0,0,4.565,2.367,2.367,0,0,1,2.367,2.367v9.13a2.367,2.367,0,0,1-2.367,2.367,2.282,2.282,0,1,0,0,4.564,2.367,2.367,0,0,1,2.367,2.367v9.664a2.367,2.367,0,0,1-2.367,2.367,12.386,12.386,0,0,0-12.372,12.372,2.367,2.367,0,0,1-2.367,2.367M20.31,114.388H173.672a17.147,17.147,0,0,1,14.576-14.576v-5.5a7.023,7.023,0,0,1,0-13.217V75.879a7.016,7.016,0,0,1,0-13.21V57.454a7.019,7.019,0,0,1,0-13.213V39.023a7.015,7.015,0,0,1,0-13.209v-5.5A17.147,17.147,0,0,1,173.672,5.734H20.31A17.147,17.147,0,0,1,5.734,20.31v5.5a7.017,7.017,0,0,1,0,13.211v5.217a7.017,7.017,0,0,1,0,13.211v5.217a7.017,7.017,0,0,1,0,13.211V81.1a7.017,7.017,0,0,1,0,13.211v5.5A17.147,17.147,0,0,1,20.31,114.388" transform="translate(-0.853 -0.853)" fill="#fff"/>
    <path id="Tracé_20912" data-name="Tracé 20912" d="M175.023,118.415H17.252a2.516,2.516,0,0,1-2.514-2.513A12.239,12.239,0,0,0,2.514,103.676,2.516,2.516,0,0,1,0,101.162V91.5a2.516,2.516,0,0,1,2.514-2.513,2.135,2.135,0,1,0,0-4.271A2.516,2.516,0,0,1,0,82.2V73.07a2.516,2.516,0,0,1,2.514-2.514,2.136,2.136,0,0,0,0-4.272A2.516,2.516,0,0,1,0,63.771V54.642a2.516,2.516,0,0,1,2.514-2.514,2.135,2.135,0,1,0,0-4.271A2.516,2.516,0,0,1,0,45.345v-9.13A2.516,2.516,0,0,1,2.514,33.7a2.135,2.135,0,1,0,0-4.271A2.516,2.516,0,0,1,0,26.916V17.252a2.516,2.516,0,0,1,2.514-2.514A12.239,12.239,0,0,0,14.739,2.514,2.516,2.516,0,0,1,17.252,0H175.023a2.517,2.517,0,0,1,2.514,2.514,12.239,12.239,0,0,0,12.225,12.225,2.516,2.516,0,0,1,2.514,2.514v9.664a2.516,2.516,0,0,1-2.514,2.514,2.135,2.135,0,1,0,0,4.271,2.516,2.516,0,0,1,2.514,2.514v9.129a2.517,2.517,0,0,1-2.512,2.514,2.136,2.136,0,1,0,0,4.272,2.516,2.516,0,0,1,2.514,2.514v9.129a2.516,2.516,0,0,1-2.514,2.514,2.136,2.136,0,0,0,0,4.272,2.516,2.516,0,0,1,2.514,2.514V82.2a2.516,2.516,0,0,1-2.514,2.513,2.135,2.135,0,0,0,0,4.271,2.516,2.516,0,0,1,2.514,2.513v9.664a2.517,2.517,0,0,1-2.514,2.514A12.239,12.239,0,0,0,177.537,115.9a2.516,2.516,0,0,1-2.514,2.513M17.252.293a2.223,2.223,0,0,0-2.22,2.22A12.533,12.533,0,0,1,2.514,15.032a2.223,2.223,0,0,0-2.22,2.22v9.664a2.223,2.223,0,0,0,2.22,2.22,2.429,2.429,0,1,1,0,4.857,2.223,2.223,0,0,0-2.22,2.22v9.13a2.223,2.223,0,0,0,2.22,2.22,2.429,2.429,0,1,1,0,4.857,2.223,2.223,0,0,0-2.22,2.22v9.129a2.223,2.223,0,0,0,2.22,2.22,2.429,2.429,0,0,1,0,4.858,2.223,2.223,0,0,0-2.22,2.22V82.2a2.223,2.223,0,0,0,2.22,2.22,2.429,2.429,0,1,1,0,4.857A2.223,2.223,0,0,0,.293,91.5v9.664a2.223,2.223,0,0,0,2.22,2.22A12.533,12.533,0,0,1,15.032,115.9a2.223,2.223,0,0,0,2.22,2.22H175.023a2.223,2.223,0,0,0,2.22-2.22,12.533,12.533,0,0,1,12.518-12.519,2.223,2.223,0,0,0,2.22-2.22V91.5a2.223,2.223,0,0,0-2.22-2.22,2.429,2.429,0,1,1,0-4.857,2.223,2.223,0,0,0,2.22-2.22V73.07a2.223,2.223,0,0,0-2.22-2.22,2.429,2.429,0,0,1,0-4.858,2.223,2.223,0,0,0,2.22-2.22V54.642a2.223,2.223,0,0,0-2.22-2.22,2.429,2.429,0,0,1,0-4.858,2.224,2.224,0,0,0,2.219-2.22V36.214a2.223,2.223,0,0,0-2.22-2.22,2.429,2.429,0,1,1,0-4.857,2.223,2.223,0,0,0,2.22-2.22V17.252a2.223,2.223,0,0,0-2.22-2.22A12.533,12.533,0,0,1,177.243,2.514a2.223,2.223,0,0,0-2.22-2.22ZM172.947,113.681H19.329l-.018-.126A17.015,17.015,0,0,0,4.86,99.1l-.126-.018V93.352l.1-.035a6.87,6.87,0,0,0,0-12.935l-.1-.035V74.924l.1-.035a6.87,6.87,0,0,0,0-12.935l-.1-.035V56.5l.1-.035a6.87,6.87,0,0,0,0-12.935l-.1-.035V38.068l.1-.035a6.87,6.87,0,0,0,0-12.935l-.1-.035V19.329l.126-.017A17.015,17.015,0,0,0,19.311,4.86l.018-.126H172.947l.018.126a17.015,17.015,0,0,0,14.451,14.451l.126.017v5.735l-.1.035a6.869,6.869,0,0,0,0,12.933l.1.035v5.424l-.1.035a6.87,6.87,0,0,0-2.54,11.325,6.806,6.806,0,0,0,2.539,1.613l.1.035v5.421l-.1.035a6.869,6.869,0,0,0,0,12.934l.1.035v5.421l-.1.035a6.876,6.876,0,0,0,0,12.941l.1.035v5.732l-.126.018a17.015,17.015,0,0,0-14.451,14.451Zm-153.363-.293H172.692a17.312,17.312,0,0,1,14.557-14.556V93.56a7.17,7.17,0,0,1,0-13.422v-5.01a7.162,7.162,0,0,1,0-13.414V56.7a7.175,7.175,0,0,1-4.648-6.712,7.181,7.181,0,0,1,4.648-6.706V38.272a7.162,7.162,0,0,1,0-13.413V19.583A17.311,17.311,0,0,1,172.692,5.027H19.583A17.311,17.311,0,0,1,5.027,19.583v5.274a7.163,7.163,0,0,1,0,13.416v5.012a7.163,7.163,0,0,1,0,13.416v5.012a7.163,7.163,0,0,1,0,13.416v5.012a7.163,7.163,0,0,1,0,13.416v5.274a17.311,17.311,0,0,1,14.556,14.556" fill="#fff"/>
    <path id="Tracé_20913" data-name="Tracé 20913" d="M305.578,147.931H183.924a2.367,2.367,0,1,1,0-4.734H305.578a2.367,2.367,0,1,1,0,4.734" transform="translate(-154.94 -122.204)" fill="#fff"/>
    <path id="Tracé_20914" data-name="Tracé 20914" d="M304.726,147.225H183.072a2.514,2.514,0,0,1,0-5.027H304.726a2.514,2.514,0,0,1,0,5.027m-121.654-4.734a2.22,2.22,0,0,0,0,4.441H304.726a2.22,2.22,0,0,0,0-4.441Z" transform="translate(-154.087 -121.351)" fill="#fff"/>
    <path id="Tracé_20915" data-name="Tracé 20915" d="M266.894,270.185h-82.97a2.367,2.367,0,0,1,0-4.734h82.97a2.367,2.367,0,1,1,0,4.734" transform="translate(-154.94 -226.535)" fill="#fff"/>
    <path id="Tracé_20916" data-name="Tracé 20916" d="M266.042,269.478h-82.97a2.514,2.514,0,0,1,0-5.027h82.97a2.514,2.514,0,1,1,0,5.027m-82.97-4.734a2.22,2.22,0,0,0,0,4.441h82.97a2.22,2.22,0,0,0,0-4.441Z" transform="translate(-154.087 -225.681)" fill="#fff"/>
    <path id="Tracé_20917" data-name="Tracé 20917" d="M266.894,392.445h-82.97a2.367,2.367,0,1,1,0-4.734h82.97a2.367,2.367,0,1,1,0,4.734" transform="translate(-154.94 -330.871)" fill="#fff"/>
    <path id="Tracé_20918" data-name="Tracé 20918" d="M266.042,391.739h-82.97a2.514,2.514,0,0,1,0-5.027h82.97a2.514,2.514,0,1,1,0,5.027m-82.97-4.734a2.22,2.22,0,0,0,0,4.441h82.97a2.22,2.22,0,0,0,0-4.441Z" transform="translate(-154.087 -330.018)" fill="#fff"/>
    <path id="Tracé_20919" data-name="Tracé 20919" d="M266.894,514.7h-82.97a2.367,2.367,0,0,1,0-4.734h82.97a2.367,2.367,0,0,1,0,4.734" transform="translate(-154.94 -435.201)" fill="#fff"/>
    <path id="Tracé_20920" data-name="Tracé 20920" d="M266.042,513.992h-82.97a2.513,2.513,0,1,1,0-5.027h82.97a2.513,2.513,0,1,1,0,5.027m-82.97-4.734a2.22,2.22,0,1,0,0,4.44h82.97a2.22,2.22,0,1,0,0-4.44Z" transform="translate(-154.087 -434.348)" fill="#fff"/>
    <path id="Tracé_20921" data-name="Tracé 20921" d="M266.894,636.959h-82.97a2.367,2.367,0,0,1,0-4.734h82.97a2.367,2.367,0,0,1,0,4.734" transform="translate(-154.94 -539.538)" fill="#fff"/>
    <path id="Tracé_20922" data-name="Tracé 20922" d="M266.042,636.253h-82.97a2.514,2.514,0,1,1,0-5.027h82.97a2.514,2.514,0,1,1,0,5.027m-82.97-4.734a2.22,2.22,0,0,0,0,4.441h82.97a2.22,2.22,0,0,0,0-4.441Z" transform="translate(-154.087 -538.685)" fill="#fff"/>
    <path id="Tracé_20923" data-name="Tracé 20923" d="M891.721,314.108q-1.3,7.533-6.3,11.7a18.37,18.37,0,0,1-12.167,4.164,18.063,18.063,0,0,1-13.326-5.287,15.209,15.209,0,0,1-3.621-5.468,27.238,27.238,0,0,1-1.376-7.641h-5.07V306.72h4.852v-6.228h-4.852V295.64h5.07a26.131,26.131,0,0,1,1.376-7.387,15.31,15.31,0,0,1,3.621-5.432,18.068,18.068,0,0,1,13.326-5.287,18.342,18.342,0,0,1,12.2,4.164q4.96,4.165,6.265,11.7h-7.967a12.041,12.041,0,0,0-3.621-6.518,9.951,9.951,0,0,0-6.88-2.39,10.381,10.381,0,0,0-7.6,3.186,7.9,7.9,0,0,0-1.955,3.114,20.523,20.523,0,0,0-.8,4.852h13.253v4.852H862.535v6.228h13.615v4.852H862.9q.289,5.795,2.752,8.256a10.377,10.377,0,0,0,7.6,3.187,10.086,10.086,0,0,0,6.916-2.39,11.928,11.928,0,0,0,3.657-6.518Z" transform="translate(-725.267 -236.846)" fill="#fff"/>
  </g>
</svg>
