<svg xmlns="http://www.w3.org/2000/svg" width="22.525" height="17.262" viewBox="0 0 22.525 17.262">
  <g id="Groupe_2328" data-name="Groupe 2328" transform="translate(0.25 0.25)">
    <path id="Tracé_20304" data-name="Tracé 20304" d="M19.337,57.75H2.693A2.7,2.7,0,0,0,0,60.443V71.818a2.7,2.7,0,0,0,2.693,2.693H19.332a2.7,2.7,0,0,0,2.693-2.693V60.448A2.693,2.693,0,0,0,19.337,57.75ZM20.8,71.818a1.465,1.465,0,0,1-1.463,1.463H2.693A1.465,1.465,0,0,1,1.23,71.818V60.448a1.465,1.465,0,0,1,1.463-1.463H19.332a1.465,1.465,0,0,1,1.463,1.463v11.37Z" transform="translate(0 -57.75)" fill="#379489" stroke="#359488" stroke-width="0.5"/>
    <path id="Tracé_20305" data-name="Tracé 20305" d="M67.1,114.811l5.387-4.831a.616.616,0,0,0-.825-.916l-7.428,6.667-1.449-1.294s-.009-.009-.009-.014a.916.916,0,0,0-.1-.087l-5.9-5.277a.617.617,0,1,0-.82.921l5.451,4.872-5.428,5.081a.618.618,0,0,0-.027.87.629.629,0,0,0,.451.2.617.617,0,0,0,.419-.164l5.51-5.154,1.495,1.335a.614.614,0,0,0,.82,0l1.536-1.376,5.478,5.2a.617.617,0,0,0,.87-.023.618.618,0,0,0-.023-.87Z" transform="translate(-53.212 -106.571)" fill="#379489" stroke="#359488" stroke-width="0.5"/>
  </g>
</svg>
