<?xml version="1.0" encoding="utf-8"?>
<!-- Generator: Adobe Illustrator 27.8.0, SVG Export Plug-In . SVG Version: 6.00 Build 0)  -->
<svg version="1.1" id="Calque_1" xmlns="http://www.w3.org/2000/svg" xmlns:xlink="http://www.w3.org/1999/xlink" x="0px" y="0px"
	 viewBox="0 0 1000 1000" style="enable-background:new 0 0 1000 1000;" xml:space="preserve">
<style type="text/css">
	.st0{fill:#0D7047;stroke:#0D7047;stroke-width:0.5;}
</style>
<g id="Groupe_2328" transform="translate(0.25 0.25)">
	<path id="Tracé_20304" class="st0" d="M703.3,294.8h-407c-36.3,0.1-65.8,29.5-65.9,65.9v278.1c0.1,36.3,29.5,65.8,65.9,65.9h406.9
		c36.3-0.1,65.8-29.5,65.9-65.9v-278C769.1,324.4,739.7,294.9,703.3,294.8C703.3,294.8,703.3,294.8,703.3,294.8z M739.1,638.8
		c0,19.7-16,35.7-35.8,35.8h-407c-19.7,0-35.7-16-35.8-35.8v-278c0-19.7,16-35.7,35.8-35.8h406.9c19.7,0,35.7,16,35.8,35.8v278
		H739.1z"/>
	<path id="Tracé_20305" class="st0" d="M570.1,496.3l131.7-118.1c6.2-5.6,6.7-15.1,1.1-21.3c-5.6-6.2-15.1-6.7-21.3-1.1l0,0
		L500,518.8l-35.4-31.6c0,0-0.2-0.2-0.2-0.3c-0.8-0.8-1.6-1.5-2.4-2.1l-144.3-129c-6-5.8-15.6-5.6-21.3,0.4
		c-5.8,6-5.6,15.6,0.4,21.3c0.3,0.3,0.6,0.5,0.8,0.7l133.3,119.1L298.1,621.6c-6,5.7-6.3,15.2-0.7,21.3c2.9,3.1,6.8,4.8,11,4.9
		c3.8,0,7.5-1.4,10.2-4l134.7-126l36.6,32.6c5.7,5.1,14.3,5.1,20.1,0l37.6-33.6l134,127.2c6,5.7,15.5,5.4,21.3-0.6
		c5.7-6,5.4-15.5-0.6-21.3L570.1,496.3z"/>
</g>
</svg>
