<svg xmlns="http://www.w3.org/2000/svg" xmlns:xlink="http://www.w3.org/1999/xlink" width="15.207" height="15.207" viewBox="0 0 15.207 15.207">
  <defs>
    <clipPath id="clip-path">
      <rect id="Rectangle_477" data-name="Rectangle 477" width="15.207" height="15.207" transform="translate(0 0)" fill="#379489"/>
    </clipPath>
  </defs>
  <g id="Groupe_2339" data-name="Groupe 2339" transform="translate(-0.001 -0.001)">
    <g id="Groupe_2338" data-name="Groupe 2338" transform="translate(0.001 0.001)" clip-path="url(#clip-path)">
      <path id="Tracé_20328" data-name="Tracé 20328" d="M.594,15.206a.594.594,0,0,1-.551-.817l1.349-3.336A6.8,6.8,0,0,1,.432,9.341,6.527,6.527,0,0,1,.606,4.262a6.985,6.985,0,0,1,1.64-2.228A7.9,7.9,0,0,1,7.6,0a7.9,7.9,0,0,1,5.357,2.035A6.986,6.986,0,0,1,14.6,4.262a6.5,6.5,0,0,1,.606,2.746A6.6,6.6,0,0,1,14,10.8a.594.594,0,1,1-.974-.68,5.414,5.414,0,0,0,.992-3.11c0-3.21-2.878-5.821-6.415-5.821S1.188,3.8,1.188,7.008a5.43,5.43,0,0,0,1.338,3.557.594.594,0,0,1,.1.608l-.932,2.3,2.713-1.2a.594.594,0,0,1,.473,0,7.008,7.008,0,0,0,5.852-.187.594.594,0,1,1,.538,1.059,8.2,8.2,0,0,1-6.613.319L.834,15.155a.593.593,0,0,1-.239.05" transform="translate(0 0.001)" fill="#379489"/>
      <path id="Tracé_20329" data-name="Tracé 20329" d="M315.261,267.063a.594.594,0,0,1-.594-.594v-3.208a.594.594,0,0,1,1.188,0v3.208a.594.594,0,0,1-.594.594" transform="translate(-307.658 -256.816)" fill="#379489"/>
      <path id="Tracé_20330" data-name="Tracé 20330" d="M315.261,170.667a.594.594,0,1,0,.594.594.594.594,0,0,0-.594-.594" transform="translate(-307.658 -166.865)" fill="#379489"/>
    </g>
  </g>
</svg>
