<?xml version="1.0" encoding="utf-8"?>
<!-- Generator: Adobe Illustrator 27.8.0, SVG Export Plug-In . SVG Version: 6.00 Build 0)  -->
<svg version="1.1" id="Calque_1" xmlns="http://www.w3.org/2000/svg" xmlns:xlink="http://www.w3.org/1999/xlink" x="0px" y="0px"
	 viewBox="0 0 213 64" style="enable-background:new 0 0 213 64;" xml:space="preserve">
<style type="text/css">
	.st0{clip-path:url(#SVGID_00000094615987599857072570000016452321799529727164_);}
	.st1{fill:#379489;}
</style>
<g>
	<defs>
		<rect id="SVGID_1_" x="19" y="0.3" width="174.9" height="63.4"/>
	</defs>
	<clipPath id="SVGID_00000071557173896138768170000011538695649403226772_">
		<use xlink:href="#SVGID_1_"  style="overflow:visible;"/>
	</clipPath>
	<g id="Groupe_2358" style="clip-path:url(#SVGID_00000071557173896138768170000011538695649403226772_);">
		<path id="Tracé_20469" class="st1" d="M59.4,20.1c-1.5-1.1-2.3-2.7-2.4-4.8h6c0,0.6,0.2,1.1,0.6,1.6c0.8,0.6,1.9,0.7,2.7,0.1
			c0.3-0.3,0.5-0.7,0.5-1.1c0-0.6-0.3-1.1-0.8-1.4c-0.9-0.5-1.8-0.8-2.7-1.1c-1.1-0.3-2.2-0.8-3.2-1.3c-0.8-0.4-1.6-1.1-2.1-1.8
			c-0.6-0.9-1-2-0.9-3.1c0-1.2,0.3-2.4,1-3.3c0.7-0.9,1.6-1.7,2.7-2.1C61.9,1.2,63.3,1,64.6,1c2.4,0,4.2,0.6,5.6,1.7
			s2.2,2.6,2.3,4.6h-6.1c0-0.5-0.2-1-0.6-1.4c-0.4-0.3-0.9-0.5-1.4-0.5c-0.4,0-0.8,0.1-1,0.4C63.1,6.1,63,6.5,63,6.9
			c0,0.4,0.2,0.7,0.4,1c0.3,0.3,0.7,0.5,1.1,0.7c0.4,0.2,1.1,0.5,2,0.8c1.1,0.4,2.1,0.8,3.2,1.3c0.8,0.4,1.6,1.1,2.2,1.8
			c0.6,0.9,0.9,1.9,0.9,2.9c0,1.1-0.3,2.3-0.9,3.2c-0.6,1-1.5,1.8-2.6,2.3c-1.3,0.6-2.6,0.9-4,0.8C62.9,21.7,60.9,21.2,59.4,20.1"/>
		<path id="Tracé_20470" class="st1" d="M90.7,14.6H80c0,0.7,0.3,1.4,0.7,2c0.4,0.4,1,0.7,1.7,0.6c0.9,0,1.7-0.5,2-1.3h6
			c-0.2,1.1-0.7,2.1-1.5,3c-0.7,0.9-1.7,1.6-2.7,2.1c-1.1,0.5-2.4,0.8-3.6,0.7c-1.5,0-2.9-0.3-4.2-1c-1.2-0.7-2.2-1.7-2.9-2.9
			c-0.7-1.3-1.1-2.9-1.1-4.4c0-1.5,0.3-3,1-4.4c0.7-1.2,1.7-2.2,2.9-2.9c2.7-1.3,5.8-1.3,8.5,0c1.2,0.6,2.2,1.6,2.9,2.8
			c0.7,1.3,1.1,2.8,1,4.3C90.8,13.7,90.7,14.2,90.7,14.6 M85,11.9c0-0.6-0.2-1.2-0.7-1.6c-0.5-0.4-1.1-0.6-1.7-0.6
			c-0.6,0-1.2,0.2-1.7,0.6c-0.5,0.4-0.8,1-0.9,1.7H85z"/>
		<path id="Tracé_20471" class="st1" d="M93.2,9.1c0.7-1.2,1.7-2.2,2.9-2.9c1.3-0.7,2.8-1,4.2-1c1.9-0.1,3.7,0.5,5.2,1.7
			c1.4,1.1,2.3,2.7,2.7,4.7h-6c-0.3-1.1-1-1.6-2-1.6c-0.7,0-1.3,0.3-1.7,0.9c-0.4,0.6-0.6,1.4-0.6,2.6s0.2,2,0.6,2.6
			c0.4,0.6,1,0.9,1.7,0.9c1,0,1.7-0.5,2-1.6h6c-0.3,1.8-1.3,3.5-2.7,4.7c-1.5,1.2-3.3,1.8-5.2,1.7c-1.5,0-2.9-0.3-4.2-1
			c-1.2-0.7-2.2-1.7-2.9-2.9c-0.7-1.4-1.1-2.9-1-4.4C92.1,12,92.5,10.5,93.2,9.1"/>
		<path id="Tracé_20472" class="st1" d="M113.7,20.7c-1.3-0.7-2.3-1.6-3-2.9c-0.8-1.3-1.1-2.9-1.1-4.4c0-1.5,0.3-3,1.1-4.4
			c0.7-1.2,1.8-2.2,3-2.9c2.7-1.3,5.9-1.3,8.6,0c1.3,0.7,2.3,1.6,3,2.9c0.8,1.3,1.1,2.8,1.1,4.4c0,1.5-0.3,3-1.1,4.4
			c-0.7,1.2-1.8,2.2-3,2.9C119.6,22.1,116.4,22.1,113.7,20.7 M120,16c0.5-0.6,0.8-1.4,0.8-2.5s-0.3-1.9-0.8-2.5
			c-0.5-0.6-1.2-0.9-1.9-0.9c-0.7,0-1.4,0.3-1.9,0.9c-0.5,0.6-0.8,1.4-0.8,2.5c0,1.1,0.2,2,0.7,2.5c0.5,0.6,1.2,0.9,1.9,0.9
			C118.8,16.9,119.5,16.6,120,16"/>
		<path id="Tracé_20473" class="st1" d="M143.7,7.1c1.1,1.2,1.6,2.9,1.6,5v9.4h-5.6v-8.6c0-0.8-0.2-1.6-0.7-2.2
			c-0.5-0.5-1.2-0.8-1.9-0.8c-0.7,0-1.5,0.2-2,0.8c-0.5,0.6-0.8,1.4-0.7,2.2v8.6h-5.6V5.4h5.6v2.3c0.5-0.7,1.2-1.4,2-1.8
			c0.9-0.5,1.9-0.7,2.9-0.7C141.2,5.3,142.7,5.9,143.7,7.1"/>
		<path id="Tracé_20474" class="st1" d="M148.5,9.1c0.5-1.2,1.4-2.2,2.5-2.9c1-0.7,2.3-1,3.5-1c1,0,1.9,0.2,2.8,0.6
			c0.8,0.4,1.4,1,1.9,1.8V0.3h5.7v21.3h-5.7v-2.2c-0.4,0.8-1.1,1.4-1.9,1.8c-0.9,0.5-1.9,0.7-2.8,0.7c-1.2,0-2.5-0.3-3.5-1
			c-1.1-0.7-1.9-1.7-2.5-2.9c-0.6-1.4-0.9-2.9-0.9-4.4C147.5,12,147.8,10.5,148.5,9.1 M158.3,11c-1.1-1.2-3-1.2-4.1-0.1
			c0,0,0,0-0.1,0.1c-0.6,0.7-0.9,1.6-0.8,2.5c0,0.9,0.2,1.8,0.8,2.5c0.5,0.6,1.3,0.9,2.1,0.9c0.8,0,1.5-0.3,2.1-0.9
			c0.6-0.7,0.9-1.6,0.8-2.5C159.2,12.6,158.9,11.7,158.3,11"/>
		<path id="Tracé_20475" class="st1" d="M72.3,33.8c-1.3,0-2.5,0.3-3.7,0.8c-1,0.5-1.9,1.3-2.5,2.2v-9.3h-7v26.6h7V43.3
			c-0.1-1,0.3-2,0.9-2.7c0.6-0.7,1.5-1,2.5-1c0.9,0,1.8,0.3,2.4,1c0.6,0.8,1,1.7,0.9,2.7v10.8h7V42.3c0-2.6-0.7-4.7-2-6.3
			C76.4,34.5,74.6,33.8,72.3,33.8"/>
		<path id="Tracé_20476" class="st1" d="M97,36.7c-0.6-0.9-1.4-1.7-2.3-2.2c-1.1-0.6-2.3-0.9-3.6-0.8c-1.5,0-3.1,0.4-4.4,1.3
			c-1.3,0.9-2.4,2.1-3.1,3.6c-0.8,1.7-1.2,3.6-1.1,5.5c0,1.9,0.3,3.8,1.1,5.5c0.7,1.5,1.7,2.7,3.1,3.6c1.3,0.8,2.8,1.3,4.4,1.3
			c1.2,0,2.5-0.3,3.6-0.8c1-0.5,1.8-1.3,2.4-2.2v2.8h7V33.9h-7V36.7z M96,47.1c-0.7,0.7-1.6,1.1-2.6,1.1c-1,0-2-0.4-2.6-1.1
			c-0.7-0.8-1-1.8-1-3.1c0-1.3,0.3-2.3,1-3.1c1.4-1.4,3.7-1.5,5.2-0.1c0,0,0,0,0.1,0.1c0.7,0.7,1.1,1.8,1.1,3.1
			C97,45.3,96.7,46.3,96,47.1"/>
		<path id="Tracé_20477" class="st1" d="M125.4,34.9c-1.3-0.8-2.8-1.3-4.4-1.3c-1.2,0-2.5,0.3-3.6,0.8c-1,0.5-1.8,1.3-2.3,2.2v-2.8
			h-7v29.8h7V51.3c0.6,0.9,1.4,1.7,2.4,2.2c1.1,0.6,2.3,0.9,3.5,0.8c1.5,0,3.1-0.4,4.4-1.3c1.3-0.9,2.4-2.1,3.1-3.6
			c0.8-1.7,1.2-3.6,1.1-5.5c0-1.9-0.3-3.7-1.1-5.5C127.8,37.1,126.7,35.8,125.4,34.9 M121.4,47.1c-1.4,1.4-3.6,1.5-5.1,0.2
			c0,0-0.1-0.1-0.1-0.1c-0.7-0.7-1.1-1.8-1.1-3.1c0-1.3,0.4-2.3,1.1-3.1c1.4-1.4,3.7-1.5,5.1-0.1c0,0,0.1,0.1,0.1,0.1
			c0.7,0.7,1.1,1.8,1.1,3.1C122.4,45.3,122.1,46.3,121.4,47.1"/>
		<rect id="Rectangle_517" x="132.5" y="33.9" class="st1" width="7" height="20.1"/>
		<path id="Tracé_20478" class="st1" d="M136.1,24.8c-1.1-0.1-2.2,0.3-3,1c-0.7,0.7-1.2,1.6-1.1,2.6c0,1,0.4,1.9,1.1,2.6
			c0.8,0.7,1.9,1.1,3,1c1.1,0,2.1-0.3,3-1c0.7-0.6,1.2-1.6,1.1-2.6c0-1-0.4-2-1.1-2.6C138.2,25.1,137.1,24.8,136.1,24.8"/>
		<path id="Tracé_20479" class="st1" d="M152.1,47.7c-0.3-0.3-0.4-0.8-0.4-1.2v-6.8h3.7v-5.9h-3.7v-4.9h-7.1v4.9h-2.5v5.9h2.5v6.6
			c0,5.1,2.6,7.6,7.7,7.6h3.1v-6h-2C152.9,48.1,152.5,48,152.1,47.7"/>
		<path id="Tracé_20480" class="st1" d="M165.7,37.5v-3.6h-7v20.1h7v-8.8c0-1.5,0.4-2.5,1.1-3.1s1.9-0.9,3.4-0.9h2v-7.5
			c-1.3,0-2.5,0.3-3.6,1C167.4,35.5,166.5,36.4,165.7,37.5"/>
		<path id="Tracé_20481" class="st1" d="M194,43.8c0-1.9-0.4-3.7-1.3-5.4c-0.8-1.5-2.1-2.7-3.6-3.5c-3.3-1.6-7.3-1.6-10.6,0
			c-1.5,0.8-2.8,2.1-3.6,3.6c-0.9,1.7-1.3,3.6-1.3,5.5c0,1.9,0.4,3.8,1.3,5.5c0.8,1.5,2.1,2.8,3.6,3.6c1.6,0.9,3.5,1.3,5.3,1.3
			c1.6,0,3.1-0.3,4.5-0.9c1.3-0.6,2.5-1.5,3.4-2.6c0.9-1.1,1.5-2.4,1.8-3.7H186c-0.4,1-1.4,1.6-2.5,1.6c-0.8,0-1.5-0.3-2.1-0.8
			c-0.5-0.5-0.8-1.4-0.9-2.5h13.3C193.9,44.9,194,44.3,194,43.8 M180.6,42c0.1-0.8,0.5-1.5,1.1-2.1c0.6-0.5,1.4-0.7,2.1-0.7
			c0.8,0,1.6,0.2,2.2,0.7c0.6,0.5,0.9,1.3,0.9,2H180.6z"/>
		<path id="Tracé_20482" class="st1" d="M19,36.4c0,10.8,8.7,19.5,19.5,19.5c5.5,0,10.8-2.4,14.5-6.5c1.4-1.6,1.2-4.1-0.4-5.5
			c-1.6-1.4-4-1.2-5.4,0.3c-4.3,4.9-11.7,5.3-16.6,1.1s-5.3-11.7-1.1-16.6c3.7-4.2,9.8-5.2,14.6-2.5l-1.4,1.4c-0.8,0.8-0.8,2,0,2.8
			c0.4,0.4,0.9,0.6,1.4,0.6h9.2c1.1,0,1.9-0.9,1.9-1.9c0,0,0,0,0,0v-9.2c0-1.1-0.9-2-1.9-2c-0.5,0-1,0.2-1.4,0.6l-2.1,2.1
			C41.2,14.3,29,16.3,22.7,25C20.3,28.3,19,32.3,19,36.4"/>
	</g>
</g>
</svg>
