<svg id="pile-de-livres" xmlns="http://www.w3.org/2000/svg" width="149.401" height="144.42" viewBox="0 0 149.401 144.42">
  <g id="Page-1_40_">
    <g id="_x30_41---Books">
      <path id="Shape_161_" d="M141.931,78.254H134a7.338,7.338,0,0,0-4.522-9.5V47.916a7.4,7.4,0,0,0,4.432-9.791,7.47,7.47,0,0,0,5.528-7.181V16a7.47,7.47,0,0,0-7.47-7.47H7.47A7.47,7.47,0,0,0,0,16v14.94a7.47,7.47,0,0,0,7.47,7.47h2.555A24.833,24.833,0,0,0,12.682,80,7.426,7.426,0,0,0,9.96,85.724v24.9a7.38,7.38,0,0,0,.458,2.49H7.47A7.47,7.47,0,0,0,0,120.584v24.9a7.47,7.47,0,0,0,7.47,7.47h124.5a7.47,7.47,0,0,0,7.47-7.47v-24.9a7.38,7.38,0,0,0-.458-2.49h2.948a7.47,7.47,0,0,0,7.47-7.47v-24.9a7.47,7.47,0,0,0-7.47-7.47Zm-29.88,34.86H37.35V83.234h84.66v29.88Zm-2.49,4.98v29.88H29.88v-29.88ZM24.9,68.294a9.96,9.96,0,1,1,0-19.92h99.6v19.92H24.9ZM134.461,16v14.94a2.49,2.49,0,0,1-2.49,2.49h-12.45V13.514h12.45A2.49,2.49,0,0,1,134.461,16Zm-19.92-2.49v19.92h-4.98V13.514ZM34.86,33.434V13.514h69.72v19.92Zm-4.98-19.92v19.92H24.9V13.514ZM4.98,30.944V16a2.49,2.49,0,0,1,2.49-2.49H19.92v19.92H7.47a2.49,2.49,0,0,1-2.49-2.49Zm0,27.39A19.943,19.943,0,0,1,24.9,38.414h102.09a2.49,2.49,0,1,1,0,4.98H24.9a14.94,14.94,0,1,0,0,29.88H126.991a2.49,2.49,0,1,1,0,4.98H24.9A19.942,19.942,0,0,1,4.98,58.334Zm9.96,52.29v-24.9a2.49,2.49,0,0,1,2.49-2.49H32.37v29.88H17.43a2.49,2.49,0,0,1-2.49-2.49Zm-9.96,34.86v-24.9a2.49,2.49,0,0,1,2.49-2.49h7.47v29.88H7.47a2.49,2.49,0,0,1-2.49-2.49Zm14.94,2.49v-29.88H24.9v29.88Zm94.62,0v-29.88h4.98v29.88Zm19.92-27.39v24.9a2.49,2.49,0,0,1-2.49,2.49H124.5v-29.88h7.47A2.49,2.49,0,0,1,134.461,120.584Zm9.96-9.96a2.49,2.49,0,0,1-2.49,2.49h-14.94V83.234h14.94a2.49,2.49,0,0,1,2.49,2.49Z" transform="translate(0 -8.534)" fill="#fff"/>
      <path id="Shape_160_" d="M224.384,281.6h-59.76a2.49,2.49,0,0,0-2.49,2.49v14.94a2.49,2.49,0,0,0,2.49,2.49h59.76a2.49,2.49,0,0,0,2.49-2.49V284.09A2.49,2.49,0,0,0,224.384,281.6Zm-2.49,14.94h-54.78v-9.96h54.78Z" transform="translate(-114.824 -201.92)" fill="#fff"/>
      <path id="Shape_159_" d="M178.5,420.987c11.992,0,24.9-3.118,24.9-9.96s-12.908-9.96-24.9-9.96-24.9,3.117-24.9,9.96,12.908,9.96,24.9,9.96Zm0-14.94c13.073,0,19.92,3.7,19.92,4.98s-6.848,4.98-19.92,4.98-19.92-3.7-19.92-4.98S165.427,406.047,178.5,406.047Z" transform="translate(-108.78 -286.527)" fill="#fff"/>
    </g>
  </g>
</svg>
