<svg xmlns="http://www.w3.org/2000/svg" width="16.99" height="15.621" viewBox="0 0 16.99 15.621">
  <path id="_x30_1" d="M16.76,29.971a5.367,5.367,0,0,1-.287-1.448,3.711,3.711,0,0,1,.29-1.329.32.32,0,0,0-.1-.349l-3.634-2.3c.071-.19.124-.292.14-.33a.337.337,0,0,0-.1-.365c-.039-.03-4.849-3.07-4.849-3.07a.271.271,0,0,0-.188-.039s-6.644,1.081-6.73,1.1a1.023,1.023,0,0,0-.669.931l0,1.277a.809.809,0,0,0,.346.7l.644.408a1.14,1.14,0,0,0-.061.325l0,1.561a.927.927,0,0,0,.395.8l1.276.808S.186,30.8.111,30.846a.307.307,0,0,0-.1.327A6.213,6.213,0,0,1,.34,32.793a7.869,7.869,0,0,1-.327,1.528.274.274,0,0,0,.21.348l8.3,1.488a.786.786,0,0,0,.577-.221c.123-.1,5.735-4.049,5.735-4.049a1.03,1.03,0,0,0,.383-.856v-.479l1.328-.214A.26.26,0,0,0,16.76,29.971Zm-3.882-4.878,2.888,1.829L10.4,27.8l-2.012.324-.738-.467,5.316-.857a.277.277,0,0,0,.19-.405,2.54,2.54,0,0,1-.29-1.073,1.309,1.309,0,0,1,.015-.229Zm-.352,1.229S6.1,27.361,6.08,27.361c-.035,0-.057-.072-.056-.135l0-1.517c.006-.175.092-.25.141-.255l6.32-1.019a2.6,2.6,0,0,0-.165.908,3.141,3.141,0,0,0,.2.979Zm-4.509-5.03,4.16,2.634-4.222.691-1.676.27L2.123,22.256Zm-6.75,3a.28.28,0,0,1-.1-.239l0-1.269a.527.527,0,0,1,.19-.367l4.33,2.741a.858.858,0,0,0-.21.551c0,.173,0,1.25,0,1.25Zm.975,3.092a.393.393,0,0,1-.144-.341s-.025-1.527.007-1.579c0,0,3.588,2.33,3.756,2.4a.543.543,0,0,0,.212.042c.056,0,.765-.116.765-.116l.926.586a.835.835,0,0,0-.28.692L7.48,30.7Zm1.481,1.579S7.8,31.58,7.86,31.614a.6.6,0,0,0,.283.071c.034,0,1.373-.213,1.373-.213l-1.125.793L.952,30.916Zm4.914,6.663L.617,34.189A6.619,6.619,0,0,0,.882,32.8a5.353,5.353,0,0,0-.226-1.374s7.692,1.346,7.868,1.41.23.33.23.445l0,2.062C8.756,35.447,8.722,35.626,8.637,35.626Zm5.89-4.18L9.3,35.128,9.3,33.283a1.114,1.114,0,0,0-.309-.775l1.748-1.232,3.947-.636v.392A.506.506,0,0,1,14.528,31.446Zm-6.37-.3c-.04,0-.133-.042-.134-.223l0-1.853a.417.417,0,0,1,.223-.371L16.1,27.429a3.344,3.344,0,0,0-.173,1.133,6.5,6.5,0,0,0,.221,1.292S8.181,31.143,8.158,31.142Z" transform="translate(0.106 -20.637)" fill="#379489" stroke="#379489" stroke-width="0.2"/>
</svg>
