<svg xmlns="http://www.w3.org/2000/svg" width="15.071" height="15.207" viewBox="0 0 15.071 15.207">
  <g id="Ikon" transform="translate(-2.125 -2)">
    <path id="Tracé_20331" data-name="Tracé 20331" d="M9.66,2c-10.046.318-10.048,14.887,0,15.207C19.706,16.888,19.709,2.32,9.66,2Zm0,14.12c-8.611-.273-8.613-12.76,0-13.034C18.271,3.359,18.273,15.846,9.66,16.12ZM12.733,7.3l-2.3,2.3,2.3,2.3c.506.491-.277,1.274-.768.768l-2.3-2.3-2.3,2.3c-.491.506-1.273-.277-.768-.768l2.3-2.3-2.3-2.3c-.506-.491.277-1.274.768-.768l2.3,2.3,2.3-2.3c.491-.506,1.274.277.768.768Z" transform="translate(0)" fill="#379489"/>
  </g>
</svg>
