<svg id="ruban-adhesif" xmlns="http://www.w3.org/2000/svg" width="124.68" height="159.325" viewBox="0 0 124.68 159.325">
  <path id="Tracé_20861" data-name="Tracé 20861" d="M111.622,106.162c-5.742,7.006-9.034,17.008-9.034,27.441s3.292,20.434,9.034,27.442c4.71,5.752,10.672,8.918,16.782,8.918,14,0,25.818-16.65,25.818-36.361S142.4,97.242,128.4,97.242C122.294,97.243,116.332,100.41,111.622,106.162Zm1.9,5.759c.5.765.974,1.558,1.413,2.383.1.19.191.4.29.591.347.678.68,1.37.988,2.084.142.328.266.668.4,1,.242.6.473,1.211.685,1.833.131.378.247.767.362,1.153.188.607.359,1.218.516,1.842.1.4.2.8.294,1.209.142.636.263,1.283.376,1.932.07.4.144.8.205,1.2.1.711.181,1.432.249,2.154.036.35.082.694.106,1.049.082,1.075.128,2.161.128,3.251s-.046,2.178-.128,3.253c-.024.352-.07.7-.106,1.051-.068.721-.144,1.44-.249,2.149-.061.405-.133.806-.205,1.207-.113.646-.236,1.288-.376,1.924-.092.41-.192.813-.294,1.216q-.236.926-.516,1.833c-.116.389-.236.777-.364,1.158-.21.62-.441,1.226-.683,1.829-.132.335-.258.68-.4,1.011-.309.712-.641,1.4-.986,2.076-.1.2-.188.405-.292.6-.439.825-.914,1.616-1.413,2.381a42.192,42.192,0,0,1,0-43.366ZM149.284,133.6c0,17.031-9.56,31.422-20.878,31.422-4.093,0-8.18-2-11.677-5.655.135-.191.253-.4.386-.6.28-.4.545-.82.808-1.24.335-.531.659-1.071.972-1.628.247-.439.483-.883.715-1.336.294-.572.569-1.155.834-1.748.212-.463.42-.931.612-1.411.25-.61.481-1.238.7-1.869.171-.483.347-.965.5-1.457.208-.656.391-1.326.569-2,.13-.489.271-.977.386-1.474.161-.709.295-1.435.429-2.161.087-.475.188-.948.26-1.427.125-.81.208-1.633.29-2.455.044-.409.1-.813.135-1.222.092-1.24.147-2.489.147-3.748s-.051-2.506-.147-3.745c-.034-.412-.1-.815-.135-1.225-.082-.822-.164-1.643-.29-2.452-.073-.483-.173-.955-.26-1.438-.135-.72-.266-1.442-.429-2.154-.116-.5-.256-.984-.386-1.479-.178-.67-.362-1.338-.564-1.992-.156-.5-.331-.98-.5-1.464-.221-.629-.453-1.254-.7-1.865-.192-.477-.4-.945-.612-1.411-.265-.593-.541-1.177-.835-1.746-.226-.455-.467-.9-.714-1.338-.309-.557-.636-1.1-.972-1.628-.263-.42-.528-.835-.808-1.24-.132-.2-.25-.405-.386-.6,3.5-3.66,7.588-5.654,11.677-5.654C139.723,102.181,149.284,116.571,149.284,133.6Z" transform="translate(-47.613 -28.713)" fill="#fff"/>
  <path id="Tracé_20862" data-name="Tracé 20862" d="M24.58,104.89c0,30.017,19.689,54.434,43.889,54.434h36.9c24.2,0,43.888-24.418,43.888-54.434s-19.689-54.433-43.888-54.433c-9.881,0-20.878-28.605-20.878-47.988A2.472,2.472,0,0,0,81.218.134L39.8,14.443a2.472,2.472,0,0,0-1.527,3.142,2.447,2.447,0,0,0,.182.309,2.406,2.406,0,0,0-.316,1.143c0,15.343,7.178,28.792,16.954,34.016C37.411,60.087,24.58,80.659,24.58,104.89Zm119.745,0c0,27.294-17.475,49.5-38.951,49.5s-38.953-22.2-38.953-49.5S83.9,55.4,105.374,55.4,144.325,77.6,144.325,104.89ZM63.952,50.455c-11.318,0-20.878-14.389-20.878-31.42a2.266,2.266,0,0,0-.094-.468L79.664,5.894c.872,14.369,6.916,35.165,15.944,44.561H68.469a35.348,35.348,0,0,0-3.556.2A2.452,2.452,0,0,0,63.952,50.455Zm4.517,4.939h18.67C72.016,64,61.48,82.941,61.48,104.888s10.536,40.892,25.659,49.495H68.469c-21.479,0-38.951-22.2-38.951-49.495S46.99,55.393,68.469,55.393Z" transform="translate(-24.58 0)" fill="#fff"/>
</svg>
