<svg id="smartphones" xmlns="http://www.w3.org/2000/svg" width="90.672" height="160.187" viewBox="0 0 90.672 160.187">
  <path id="Tracé_20893" data-name="Tracé 20893" d="M145.827,182.187H80.845A12.845,12.845,0,0,1,68,169.342V34.845A12.845,12.845,0,0,1,80.845,22h64.982a12.845,12.845,0,0,1,12.845,12.845v134.5A12.845,12.845,0,0,1,145.827,182.187ZM80.845,26.534a8.312,8.312,0,0,0-8.312,8.312v134.5a8.312,8.312,0,0,0,8.312,8.312h64.982a8.312,8.312,0,0,0,8.312-8.312V34.845a8.312,8.312,0,0,0-8.312-8.312Z" transform="translate(-68 -22)" fill="#fff"/>
  <path id="Tracé_20894" data-name="Tracé 20894" d="M133.861,34.248h-26.9a7.783,7.783,0,0,1-7.775-7.715A2.267,2.267,0,1,1,99.247,22h42.314a2.267,2.267,0,1,1,.06,4.534A7.783,7.783,0,0,1,133.861,34.248ZM103.72,26.534a3.249,3.249,0,0,0,3.242,3.181h26.9a3.249,3.249,0,0,0,3.242-3.181Z" transform="translate(-75.076 -22)" fill="#fff"/>
  <path id="Tracé_20895" data-name="Tracé 20895" d="M136.78,218.274H108.657a2.267,2.267,0,1,1,0-4.534H136.78a2.267,2.267,0,1,1,0,4.534Z" transform="translate(-77.383 -68.861)" fill="#fff"/>
  <path id="Tracé_20896" data-name="Tracé 20896" d="M100.888,159.952H88.927a2.267,2.267,0,0,1-2.267-2.267V145.717a2.267,2.267,0,1,1,4.534,0v9.7h9.694a2.267,2.267,0,1,1,0,4.534Z" transform="translate(-72.561 -51.682)" fill="#fff"/>
  <path id="Tracé_20897" data-name="Tracé 20897" d="M161.625,159.952H149.657a2.267,2.267,0,1,1,0-4.534h9.7v-9.7a2.267,2.267,0,1,1,4.534,0v11.969A2.267,2.267,0,0,1,161.625,159.952Z" transform="translate(-87.402 -51.682)" fill="#fff"/>
  <path id="Tracé_20898" data-name="Tracé 20898" d="M161.625,99.212a2.267,2.267,0,0,1-2.267-2.267v-9.7h-9.7a2.267,2.267,0,1,1,0-4.534h11.969a2.267,2.267,0,0,1,2.267,2.267V96.945A2.267,2.267,0,0,1,161.625,99.212Z" transform="translate(-87.402 -36.838)" fill="#fff"/>
  <path id="Tracé_20899" data-name="Tracé 20899" d="M88.927,99.212a2.267,2.267,0,0,1-2.267-2.267V84.977a2.267,2.267,0,0,1,2.267-2.267h11.961a2.267,2.267,0,1,1,0,4.534H91.194v9.7A2.267,2.267,0,0,1,88.927,99.212Z" transform="translate(-72.561 -36.838)" fill="#fff"/>
  <path id="Tracé_20900" data-name="Tracé 20900" d="M149.621,126.654H83.537a2.267,2.267,0,0,1,0-4.534h66.085a2.267,2.267,0,1,1,0,4.534Z" transform="translate(-71.244 -46.469)" fill="#fff"/>
  <path id="Tracé_20901" data-name="Tracé 20901" d="M104.757,113.053a2.267,2.267,0,0,1-2.267-2.267v-6.649a2.267,2.267,0,1,1,4.534,0v6.649a2.267,2.267,0,0,1-2.267,2.267Z" transform="translate(-76.43 -41.52)" fill="#fff"/>
  <path id="Tracé_20902" data-name="Tracé 20902" d="M116.717,113.053a2.267,2.267,0,0,1-2.267-2.267v-6.649a2.267,2.267,0,0,1,4.534,0v6.649A2.267,2.267,0,0,1,116.717,113.053Z" transform="translate(-79.352 -41.52)" fill="#fff"/>
  <path id="Tracé_20903" data-name="Tracé 20903" d="M128.687,113.053a2.267,2.267,0,0,1-2.267-2.267v-6.649a2.267,2.267,0,1,1,4.534,0v6.649A2.267,2.267,0,0,1,128.687,113.053Z" transform="translate(-82.277 -41.52)" fill="#fff"/>
  <path id="Tracé_20904" data-name="Tracé 20904" d="M140.647,113.053a2.267,2.267,0,0,1-2.267-2.267v-6.649a2.267,2.267,0,1,1,4.534,0v6.649A2.267,2.267,0,0,1,140.647,113.053Z" transform="translate(-85.201 -41.52)" fill="#fff"/>
  <path id="Tracé_20905" data-name="Tracé 20905" d="M152.607,113.053a2.267,2.267,0,0,1-2.267-2.267v-6.649a2.267,2.267,0,1,1,4.534,0v6.649A2.267,2.267,0,0,1,152.607,113.053Z" transform="translate(-88.123 -41.52)" fill="#fff"/>
  <path id="Tracé_20906" data-name="Tracé 20906" d="M104.757,144.753a2.267,2.267,0,0,1-2.267-2.267v-6.649a2.267,2.267,0,0,1,4.534,0v6.649a2.267,2.267,0,0,1-2.267,2.267Z" transform="translate(-76.43 -49.267)" fill="#fff"/>
  <path id="Tracé_20907" data-name="Tracé 20907" d="M116.717,144.753a2.267,2.267,0,0,1-2.267-2.267v-6.649a2.267,2.267,0,1,1,4.534,0v6.649A2.267,2.267,0,0,1,116.717,144.753Z" transform="translate(-79.352 -49.267)" fill="#fff"/>
  <path id="Tracé_20908" data-name="Tracé 20908" d="M128.687,144.753a2.267,2.267,0,0,1-2.267-2.267v-6.649a2.267,2.267,0,1,1,4.534,0v6.649A2.267,2.267,0,0,1,128.687,144.753Z" transform="translate(-82.277 -49.267)" fill="#fff"/>
  <path id="Tracé_20909" data-name="Tracé 20909" d="M140.647,144.753a2.267,2.267,0,0,1-2.267-2.267v-6.649a2.267,2.267,0,1,1,4.534,0v6.649A2.267,2.267,0,0,1,140.647,144.753Z" transform="translate(-85.201 -49.267)" fill="#fff"/>
  <path id="Tracé_20910" data-name="Tracé 20910" d="M152.607,144.753a2.267,2.267,0,0,1-2.267-2.267v-6.649a2.267,2.267,0,1,1,4.534,0v6.649A2.267,2.267,0,0,1,152.607,144.753Z" transform="translate(-88.123 -49.267)" fill="#fff"/>
</svg>
