<?xml version="1.0" encoding="utf-8"?>
<!-- Generator: Adobe Illustrator 27.8.0, SVG Export Plug-In . SVG Version: 6.00 Build 0)  -->
<svg version="1.1" id="Calque_1" xmlns="http://www.w3.org/2000/svg" xmlns:xlink="http://www.w3.org/1999/xlink" x="0px" y="0px"
	 viewBox="0 0 1000 1000" style="enable-background:new 0 0 1000 1000;" xml:space="preserve">
<style type="text/css">
	.st0{fill:#0D7047;stroke:#0D7047;stroke-width:0.5;}
</style>
<path id="mobile" class="st0" d="M617.6,731.7c-47.9-4.7-94.2-20.1-135.5-44.8c-32.7-19.5-63.4-42.3-91.7-67.9
	c-29.8-27-56.7-57.1-80.2-89.7c-29.1-38.9-47.8-84.7-54.3-132.8c0-55.5,83.1-118.9,92.6-125.9c5.2-3.9,12.5-3,16.7,2l89,107.1
	c4.2,5.1,3.6,12.7-1.4,17c-20.3,16.1-38,35.3-52.5,56.8c18.1,29.4,40.9,55.8,67.3,78.1c0.4,0.3,0.8,0.6,1.2,0.9
	c25.4,24.6,54.6,45.1,86.4,60.7c19.9-16.6,37.2-36.1,51.2-57.8c3.8-5.4,11.3-6.8,16.8-3l115.4,78c5.4,3.6,7,10.9,3.6,16.4
	c-6.1,10.1-60.9,99.2-116.2,104.6c-2.7,0.3-5.5,0.4-8.5,0.4L617.6,731.7z M354,297.3c-26.7,21.7-73.7,66.6-73.7,99.2
	c6.9,43.3,24.2,84.2,50.3,119.4c22.4,30.9,47.9,59.5,76.2,85.1c26.8,24.3,55.8,45.9,86.8,64.6c37.8,22.7,80,37,123.8,41.9
	c2.1,0,4.2,0,6-0.3c32.4-3.2,72.4-54.4,91.4-83.1l-95.7-64.8c-20.4,27.7-45.6,56.8-61.6,58.4c-0.7,0-1.4,0-2.1,0
	c-24.5,0-86.2-52.3-101.6-65.6c-0.7-0.4-1.3-0.9-1.9-1.4c-17.9-16.8-76.3-73.5-76.3-97.5c0-16.1,26.5-44,52-67.1L354,297.3z"/>
</svg>
