<svg xmlns="http://www.w3.org/2000/svg" width="20.122" height="19.148" viewBox="0 0 20.122 19.148">
  <path id="mobile" d="M14.516,21.1a13.063,13.063,0,0,1-5.437-1.8A23.168,23.168,0,0,1,5.4,16.576a23.132,23.132,0,0,1-3.219-3.6A11.473,11.473,0,0,1,0,7.644C0,5.417,3.337,2.873,3.718,2.59a.491.491,0,0,1,.67.08l3.573,4.3a.491.491,0,0,1-.055.684A10.047,10.047,0,0,0,5.8,9.933a13.114,13.114,0,0,0,2.7,3.136.475.475,0,0,1,.049.037,13.6,13.6,0,0,0,3.466,2.436,10.347,10.347,0,0,0,2.057-2.321.49.49,0,0,1,.675-.122l4.63,3.131a.49.49,0,0,1,.146.659c-.244.407-2.445,3.98-4.662,4.2-.107.011-.222.016-.34.016ZM3.938,3.664C2.866,4.535.981,6.339.981,7.644A10.943,10.943,0,0,0,3,12.436a22,22,0,0,0,3.059,3.415,22.367,22.367,0,0,0,3.484,2.592,12.317,12.317,0,0,0,4.97,1.68c.086,0,.167,0,.242-.011,1.3-.129,2.907-2.182,3.669-3.335l-3.842-2.6c-.82,1.11-1.829,2.28-2.472,2.344a.781.781,0,0,1-.084,0c-.984,0-3.461-2.1-4.079-2.635a.46.46,0,0,1-.075-.057c-.718-.674-3.061-2.95-3.061-3.912,0-.647,1.065-1.766,2.088-2.692Z" transform="translate(0.251 -2.207)" fill="#379489" stroke="#379489" stroke-width="0.5"/>
</svg>
